<?xml version="1.0" standalone="no"?>
<!DOCTYPE svg PUBLIC "-//W3C//DTD SVG 20010904//EN"
 "http://www.w3.org/TR/2001/REC-SVG-20010904/DTD/svg10.dtd">
<svg version="1.0" xmlns="http://www.w3.org/2000/svg"
 width="170.000000pt" height="170.000000pt" viewBox="0 0 170.000000 170.000000"
 preserveAspectRatio="xMidYMid meet">
<metadata>
Created by potrace 1.14, written by Peter Selinger 2001-2017
</metadata>
<g transform="translate(0.000000,170.000000) scale(0.100000,-0.100000)"
fill="#000000" stroke="none">
<path d="M169 1673 c-1 -10 -1 -21 0 -25 0 -5 -10 -8 -24 -8 -21 0 -25 -5 -25
-30 0 -27 -3 -30 -30 -30 -28 0 -35 -8 -31 -37 1 -8 -9 -13 -24 -13 l-25 0 0
-685 0 -685 25 0 c20 0 25 -5 25 -25 0 -21 5 -25 30 -25 27 0 30 -3 30 -30 0
-26 4 -30 26 -30 20 0 25 -4 22 -22 l-3 -23 688 -2 687 -1 0 24 c0 19 5 24 24
24 21 0 25 6 28 33 3 28 6 32 31 29 23 -3 27 0 27 22 0 19 5 26 20 26 20 0 20
7 20 685 0 678 0 685 -20 685 -15 0 -20 7 -20 25 0 21 -5 25 -30 25 -29 0 -36
10 -31 48 1 7 -9 12 -24 12 -20 0 -25 5 -25 25 l0 25 -685 0 c-645 0 -685 -1
-686 -17z"/>
</g>
</svg>
